<svg id="Layer_1" data-name="Layer 1" xmlns="http://www.w3.org/2000/svg" viewBox="0 0 705.53 647.79"><defs><style>.cls-1{fill:#f1f2f2;}.cls-2{fill:#d1d3d4;}.cls-3{fill:#bcbec0;}.cls-4{fill:#ffde17;}.cls-5{fill:#d5b718;}.cls-6{fill:#497bbe;}</style></defs><circle class="cls-1" cx="80.46" cy="567.17" r="80.44"/><circle class="cls-2" cx="93.36" cy="541.65" r="49.31"/><rect class="cls-3" x="110.54" y="359.31" width="56.83" height="240.79" rx="28.41" transform="translate(200.12 -44.82) rotate(23.94)"/><circle class="cls-4" cx="193.18" cy="324.69" r="88.39"/><circle class="cls-5" cx="213.21" cy="300.48" r="54.18"/><rect class="cls-3" x="403.4" y="109.37" width="62.44" height="264.58" rx="31.22" transform="translate(921.01 145.82) rotate(143.28)"/><rect class="cls-3" x="551.13" y="359.49" width="56.83" height="240.79" rx="28.41" transform="translate(1297.47 653.63) rotate(156.06)"/><rect class="cls-3" x="252.65" y="109.19" width="62.44" height="264.58" rx="31.22" transform="translate(194.21 -151.51) rotate(36.72)"/><circle class="cls-6" cx="353.51" cy="109.72" r="109.72"/><circle class="cls-1" cx="625.07" cy="567.34" r="80.44"/><circle class="cls-1" cx="402.48" cy="561.89" r="80.44"/><circle class="cls-2" cx="415.39" cy="536.38" r="49.31"/><rect class="cls-3" x="432.57" y="354.04" width="56.83" height="240.79" rx="28.41" transform="translate(225.68 -175.94) rotate(23.94)"/><circle class="cls-4" cx="512.34" cy="324.86" r="88.39"/></svg>