<svg id="Layer_1" data-name="Layer 1" xmlns="http://www.w3.org/2000/svg" viewBox="0 0 705.49 647.78">
  <circle cx="80.44" cy="567.17" r="80.44" style="fill: #f1f2f2"/>
  <circle cx="93.34" cy="541.65" r="49.31" style="fill: #d1d3d4"/>
  <rect x="195.05" y="589.59" width="240.79" height="56.83" rx="28.41" transform="translate(-560.39 487.53) rotate(-66.06)" style="fill: #bcbec0"/>
  <circle cx="193.16" cy="324.69" r="88.39" style="fill: #ffde17"/>
  <circle cx="213.19" cy="300.48" r="54.18" style="fill: #d5b718"/>
  <path d="M690.21,486h0a31.22,31.22,0,0,1-43.69-6.35l-120.86-162A31.22,31.22,0,0,1,532,273.94h0a31.22,31.22,0,0,1,43.69,6.35l120.86,162A31.21,31.21,0,0,1,690.21,486Z" transform="translate(-182.99 -168)" style="fill: #bcbec0"/>
  <rect x="727.61" y="497.8" width="56.83" height="240.79" rx="28.41" transform="translate(-368.81 191.96) rotate(-23.94)" style="fill: #bcbec0"/>
  <path d="M539.44,273.74h0a31.22,31.22,0,0,1,6.36,43.69l-120.86,162a31.22,31.22,0,0,1-43.69,6.36h0a31.22,31.22,0,0,1-6.36-43.69l120.86-162A31.22,31.22,0,0,1,539.44,273.74Z" transform="translate(-182.99 -168)" style="fill: #bcbec0"/>
  <circle cx="353.49" cy="109.72" r="109.72" style="fill: #497bbe"/>
  <circle cx="625.05" cy="567.34" r="80.44" style="fill: #f1f2f2"/>
  <circle cx="402.46" cy="561.89" r="80.44" style="fill: #f1f2f2"/>
  <circle cx="415.37" cy="536.38" r="49.31" style="fill: #d1d3d4"/>
  <rect x="517.07" y="584.32" width="240.79" height="56.83" rx="28.41" transform="translate(-364.22 778.73) rotate(-66.06)" style="fill: #bcbec0"/>
  <circle cx="512.32" cy="324.86" r="88.39" style="fill: #ffde17"/>
</svg>
