<svg xmlns="http://www.w3.org/2000/svg" viewBox="0 0 1015 1015">
  <g id="Layer_2" data-name="Layer 2">
    <circle cx="507.5" cy="507.5" r="507" style="fill: #262626;stroke: #000;stroke-miterlimit: 10"/>
  </g>
  <g id="Layer_1" data-name="Layer 1">
    <circle cx="225.96" cy="706.67" r="80.44" style="fill: #f1f2f2"/>
    <circle cx="238.86" cy="681.15" r="49.31" style="fill: #d1d3d4"/>
    <rect x="195.05" y="589.59" width="240.79" height="56.83" rx="28.41" transform="translate(-414.87 627.03) rotate(-66.06)" style="fill: #bcbec0"/>
    <circle cx="338.68" cy="464.19" r="88.39" style="fill: #ffde17"/>
    <circle cx="358.71" cy="439.98" r="54.18" style="fill: #d5b718"/>
    <path d="M690.21,486h0a31.22,31.22,0,0,1-43.69-6.35l-120.86-162A31.22,31.22,0,0,1,532,273.94h0a31.22,31.22,0,0,1,43.69,6.35l120.86,162A31.21,31.21,0,0,1,690.21,486Z" transform="translate(-37.47 -28.5)" style="fill: #bcbec0"/>
    <rect x="727.61" y="497.8" width="56.83" height="240.79" rx="28.41" transform="translate(-223.29 331.46) rotate(-23.94)" style="fill: #bcbec0"/>
    <path d="M539.44,273.74h0a31.22,31.22,0,0,1,6.36,43.69l-120.86,162a31.22,31.22,0,0,1-43.69,6.36h0a31.22,31.22,0,0,1-6.36-43.69l120.86-162A31.22,31.22,0,0,1,539.44,273.74Z" transform="translate(-37.47 -28.5)" style="fill: #bcbec0"/>
    <circle cx="499.01" cy="249.22" r="109.72" style="fill: #497bbe"/>
    <circle cx="770.57" cy="706.84" r="80.44" style="fill: #f1f2f2"/>
    <circle cx="547.98" cy="701.39" r="80.44" style="fill: #f1f2f2"/>
    <circle cx="560.89" cy="675.88" r="49.31" style="fill: #d1d3d4"/>
    <rect x="517.07" y="584.32" width="240.79" height="56.83" rx="28.41" transform="translate(-218.7 918.23) rotate(-66.06)" style="fill: #bcbec0"/>
    <circle cx="657.84" cy="464.36" r="88.39" style="fill: #ffde17"/>
  </g>
</svg>
